<?xml version="1.0" encoding="utf-8"?>
<!-- Generator: Adobe Illustrator 27.0.1, SVG Export Plug-In . SVG Version: 6.00 Build 0)  -->
<svg version="1.1" id="Layer_1" xmlns="http://www.w3.org/2000/svg" xmlns:xlink="http://www.w3.org/1999/xlink" x="0px" y="0px"
	 viewBox="0 0 705.9 148.9" style="enable-background:new 0 0 705.9 148.9;" xml:space="preserve">
<style type="text/css">
	.st0{fill:#4D5E6A;}
	.st1{fill:#F47722;}
</style>
<g>
	<path class="st0" d="M315.7,99.7c0,25.9-19.6,47.1-44.3,49c-1.2,0.1-2.4,0.1-3.6,0.1c-14.5,0-27.4-6.6-36.2-17
		c-7.3-8.6-11.7-19.9-11.7-32.2c0-14.2-11-25.8-24.5-25.8c-1.2,0-2.4,0.1-3.6,0.3c-11.8,1.8-20.9,12.5-20.9,25.4
		c0,14.2,11,25.8,24.5,25.8c9.7,0,18.1-6,22.1-14.6c1.9,9,6,17.1,11.7,23.7c-8.7,8.8-20.6,14.3-33.8,14.3
		c-26.4,0-47.9-22.1-47.9-49.2V10.3h23.4v47.2c6.2-3.8,13.3-6.2,20.9-6.8c1.2-0.1,2.4-0.1,3.6-0.1c14.5,0,27.4,6.6,36.2,17
		c7.3,8.6,11.7,19.9,11.7,32.2c0,14.2,11,25.8,24.5,25.8c1.2,0,2.4-0.1,3.6-0.3c11.8-1.8,20.9-12.5,20.9-25.4
		c0-14.2-11-25.8-24.5-25.8c-9.7,0-18.1,6-22.1,14.6c-1.9-9-6-17.1-11.7-23.7c8.7-8.8,20.6-14.3,33.8-14.3
		C294.2,50.6,315.7,72.6,315.7,99.7z"/>
	<rect x="14.1" y="51.6" class="st1" width="23.4" height="97.3"/>
	<rect x="14.1" y="24.2" class="st1" width="23.4" height="23.4"/>
	<rect x="14.1" class="st1" width="10.8" height="10.1"/>
	<rect y="10.1" class="st1" width="14.1" height="14.1"/>
	<g>
		<g>
			<path class="st0" d="M368.3,148.9c-23.3,0-42.3-19.7-42.3-44V50.4h23.4V105c0,11.3,8.5,20.5,18.9,20.5c10.4,0,18.9-9.2,18.9-20.5
				V50.4h23.4V105C410.6,129.2,391.6,148.9,368.3,148.9z"/>
		</g>
	</g>
	<g>
		<g>
			<path class="st0" d="M505.3,148.9h-23.4V94.3c0-11.3-8.5-20.5-18.9-20.5c-10.4,0-18.9,9.2-18.9,20.5v54.6h-23.4V94.3
				c0-24.2,19-43.9,42.3-43.9c23.3,0,42.3,19.7,42.3,43.9V148.9z"/>
		</g>
	</g>
	<g>
		<g>
			<path class="st1" d="M136.9,148.9h-23.4V94.3c0-11.3-8.5-20.5-18.9-20.5S75.7,83,75.7,94.3v54.6H52.3V94.3
				c0-24.2,19-43.9,42.3-43.9c23.3,0,42.3,19.7,42.3,43.9V148.9z"/>
		</g>
	</g>
	<g>
		<g>
			<path class="st0" d="M584.1,114.9c-4.8,6.5-12.5,10.8-21.3,10.8c-14.5,0-26.2-11.6-26.2-25.9s11.8-25.9,26.2-25.9
				c6.4,0,12.3,2.3,16.8,6.1c6.3-3.6,14.4-8.3,20.9-12.1c-9.1-10.5-22.6-17.2-37.7-17.2c-27.4,0-49.6,22-49.6,49.1
				s22.3,49.1,49.6,49.1c17.8,0,33.4-9.3,42.2-23.3L584.1,114.9z"/>
		</g>
	</g>
	<polygon class="st0" points="705.9,50.4 665.5,111.5 665.5,148.9 642,148.9 642,111.5 601.5,50.4 629.8,50.4 654.3,86 678.8,50.4 	
		"/>
</g>
</svg>
